<?xml version="1.0" encoding="UTF-8" standalone="no"?>
<svg id="Layer_1" data-name="Layer 1" viewBox="0 0 875 875" version="1.1" sodipodi:docname="nostr_logo_blk.svg" inkscape:version="1.1.2 (0a00cf5339, 2022-02-04)" xmlns:inkscape="http://www.inkscape.org/namespaces/inkscape" xmlns:sodipodi="http://sodipodi.sourceforge.net/DTD/sodipodi-0.dtd" xmlns="http://www.w3.org/2000/svg" xmlns:svg="http://www.w3.org/2000/svg">
  <sodipodi:namedview id="namedview9" pagecolor="#ffffff" bordercolor="#666666" borderopacity="1.0" inkscape:pageshadow="2" inkscape:pageopacity="0.0" inkscape:pagecheckerboard="0" showgrid="false" inkscape:zoom="0.99771429" inkscape:cx="417.95532" inkscape:cy="436.99885" inkscape:window-width="2560" inkscape:window-height="1311" inkscape:window-x="0" inkscape:window-y="32" inkscape:window-maximized="1" inkscape:current-layer="Layer_1"/>
  <defs id="defs4">
    <style id="style2">
      .cls-1 {
        stroke: #000;
        stroke-miterlimit: 10;
        stroke-width: 6px;
      }
    </style>
  </defs>
  <path class="cls-1" d="m 601.42006,470.7958 c 0.14469,8.7056 -7.84599,35.58989 -25.43208,56.21639 -17.58608,20.62651 -36.84265,14.41712 -38.42107,13.94 -1.5784,-0.47712 -2.03219,-3.08395 -5.189,-2.60684 -3.15682,0.47712 -6.31363,4.26636 -12.40366,4.97858 -6.09002,0.71221 -11.50264,1.18241 -17.13887,-0.94732 -2.93321,0.47711 -3.38042,0.49094 -4.73522,1.54889 -1.35481,1.05795 -11.72625,7.46095 -14.20566,7.93114 0,4.97859 -0.90102,30.81876 0,38.64618 0.901,7.82741 2.47941,17.77765 4.95882,24.89286 2.47942,7.11521 1.80202,7.35031 4.95883,6.8732 3.15682,-0.47712 8.79304,0.2351 10.37146,2.84193 1.57841,2.60683 0.90101,4.50147 3.6106,5.69079 2.70961,1.18932 39.91398,11.85176 65.39209,13.27618 17.5861,0.47712 28.18774,1.89463 34.27775,13.51131 0.90101,5.45567 4.95882,9.00983 7.43825,9.72204 2.47941,0.71222 5.41262,1.42442 7.89204,4.03126 2.47941,2.60683 0.67739,5.69078 3.61059,8.06253 2.9332,2.37172 9.69405,5.92589 16.68509,9.48002 6.99103,3.55415 9.92423,9.24494 10.37145,11.13956 0.44721,1.89462 1.12461,7.58541 1.12461,7.58541 0,0 -5.85982,0 -7.21462,-1.42443 -1.35481,-1.42443 -1.80202,-4.03126 -1.80202,-4.03126 0,0 -4.05782,0.71222 -4.95882,2.37174 -0.90102,1.65952 0.45379,1.89462 -5.18903,0.47711 -5.6428,-1.4175 -7.66842,-2.60684 -11.94986,-5.92589 -4.28142,-3.31904 -10.82524,-11.85176 -16.46146,-11.61666 2.70301,5.69079 3.83421,5.69079 6.99103,7.5854 3.15681,1.89463 5.41261,4.03126 5.41261,4.03126 l -4.73522,3.08396 c 0,0 -2.93321,1.42443 -9.69406,-0.47712 -6.76084,-1.90154 -7.66842,-3.08394 -8.34582,-7.3503 -0.6774,-4.26636 0,-6.40301 -1.80202,-9.95716 -1.80201,-3.55413 -2.70302,-10.90445 -14.65945,-14.70062 -11.94986,-3.79615 -43.74818,-14.70061 -65.84589,-17.07234 -22.09771,-2.37174 -14.88307,-1.89463 -18.4871,-0.94732 -3.60402,0.94732 -10.37145,3.08395 -17.36248,-0.94731 -6.99103,-4.03126 -11.04884,-9.48003 -11.50264,-13.98841 -0.45379,-4.50836 -1.12462,-7.58541 0,-13.27619 1.12462,-5.69079 2.2558,-13.7533 1.12462,-18.48987 -1.1312,-4.73655 -9.24685,-38.64617 -13.08106,-44.33694 -8.56943,0.7122 -33.37016,-0.47712 -33.37016,-0.47712 0,0 -1.57839,-0.47712 -11.50264,4.03126 -9.92423,4.50837 -23.99178,9.5146 -30.75921,13.78097 -6.76741,4.26636 -9.47044,6.70724 -10.60164,9.07898 0.0789,2.07441 -0.80894,5.33813 -1.83488,6.2647 -1.02598,0.92657 -8.20773,1.67335 -8.20773,1.67335 0,0 -3.84737,4.05201 -5.42577,6.89395 -4.51163,6.63808 -36.30337,86.53035 -43.74819,103.60271 -8.90485,22.52112 -6.42542,18.96698 -24.80073,18.96698 -18.37528,0 -5.30081,0.20743 -5.30081,0.20743 0,0 -8.11565,4.06584 -11.04885,4.06584 -2.93321,0 -12.40367,-1.65952 -17.36249,0 -4.95881,1.65952 -10.82525,6.403 -15.33027,7.11521 -4.50504,0.71221 -3.25547,-0.92657 -5.51128,-2.58609 -2.63068,-0.14521 -9.38495,-0.083 -9.38495,-0.083 0,0 1.14435,-4.50146 5.20218,-7.52318 5.41261,-4.03126 16.68507,-11.13955 22.77509,-14.7006 6.09003,-3.56107 11.50265,-5.45571 15.33028,-6.40301 3.82763,-0.94732 12.17347,-4.26636 20.06551,-6.8732 7.89204,-2.60684 12.85086,-5.69079 19.61829,-21.8089 6.76741,-16.11814 33.14654,-77.05033 33.82395,-80.36939 0.41432,-2.04673 2.4531,-4.48071 3.15682,-10.43425 0.43404,-3.69937 -1.63761,-9.01675 1.1246,-15.64794 7.21465,-17.30745 14.20567,-13.98839 17.36249,-13.98839 3.1568,0 11.27245,0.2351 17.36247,-0.94732 6.09003,-1.18241 10.14785,-1.89462 16.23787,-5.45569 6.09002,-3.56105 7.43824,-6.16098 7.43824,-6.16098 l -13.08104,-2.37174 c 0,0 -12.17346,0.47711 -16.46147,-3.08394 -4.28802,-3.56105 -10.14784,-10.90444 -10.14784,-10.90444 l -4.95884,-4.97857 0.6774,5.92587 c 0,0 -3.38042,-6.16097 -4.28143,-7.11521 -0.901,-0.95422 -5.63623,-4.50146 -7.43824,-7.8205 -1.80202,-3.31905 -4.95883,-17.30745 -4.95883,-17.30745 l -4.05783,9.00983 -1.12462,-13.04109 -3.38041,4.97857 -1.80202,-11.13956 -3.15682,5.69079 -2.2558,-9.95715 -3.83422,3.08395 -1.5784,-7.11521 -3.83422,-2.37174 c 0,0 -9.24684,-6.40299 -10.82524,-6.63809 -1.5784,-0.2351 -2.93321,2.37174 -2.93321,2.37174 l 0.90101,8.29761 -8.02358,-4.33551 -4.60368,-8.22847 c 0,0 1.5521,2.77279 -6.32678,5.20676 -13.51511,0 -14.39639,-1.57655 -16.39571,-2.72438 -0.86154,-4.53604 -3.66321,-6.99075 -3.66321,-6.99075 h -13.52828 l -0.22359,-4.74347 -5.18902,2.13663 0.45379,-7.11522 h -9.24683 l 0.6774,-7.8205 h -5.85984 c 0,0 2.0322,-6.40299 16.90868,-15.88303 14.87649,-9.48003 16.46147,-11.38156 30.44353,-11.85175 13.98207,-0.47712 21.64392,1.89461 30.44354,5.69076 8.79962,3.79617 25.47812,9.48005 28.86511,12.09379 7.43826,-6.87319 18.71729,-13.75331 22.5515,-13.75331 0.6774,-1.65952 4.07097,-8.5258 11.81175,-12.16984 23.22232,-10.93211 71.11383,-23.50993 86.50329,-24.5748 20.51929,-1.42441 5.18901,-0.94729 25.70831,1.42445 20.5193,2.37173 35.62597,5.21367 45.77381,8.77472 8.27348,2.89726 16.46147,6.63811 22.5515,1.42443 2.84771,-1.25156 7.76708,-0.92657 11.72624,-3.55416 20.18388,-17.34893 22.8343,-22.36899 28.69413,-29.0071 5.85984,-6.63808 13.24548,-17.22447 14.82388,-31.21287 1.57841,-13.9884 2.93321,-40.30571 -6.99103,-60.93221 -9.92424,-20.6265 -18.94089,-31.29585 -22.77511,-47.89109 -3.8342,-16.59525 -5.41261,-42.20032 -4.05782,-50.49794 1.35481,-8.29762 3.38043,-15.41283 4.51162,-21.09671 1.1312,-5.68387 6.53723,-10.19224 13.08105,-11.38158 6.53724,-1.1824 11.72626,0.94732 14.65946,3.31906 2.9332,2.37174 7.66186,4.34243 8.79304,7.1152 0.22361,1.18242 -0.901,4.50147 5.41263,5.6908 6.31362,1.18241 10.55559,2.87651 10.55559,2.87651 0,0 10.28596,2.9664 2.04536,5.34505 -8.34583,1.42442 -13.49538,-0.49095 -15.97479,1.16858 -2.47942,1.65952 -4.74181,6.97 -6.32021,7.6753 -1.57842,0.7053 -4.73522,0.2351 -7.89205,2.84193 -3.15681,2.60684 -6.31363,4.74348 -8.34583,9.95716 -2.03219,5.21365 -3.6106,10.90445 -2.2558,18.48986 1.3548,7.5854 5.63623,21.80891 9.47045,29.87144 3.83421,8.06251 13.30465,28.2119 16.00767,32.95538 2.70302,4.74347 10.37146,20.3914 11.04885,37.22174 0.67742,16.83034 0.67742,30.58365 0,37.93395 -0.67739,7.35032 -7.12914,35.71436 -23.36701,59.4248 -5.36657,9.77736 -15.26449,22.05785 -16.22471,24.22214 -0.95361,2.1643 -1.98615,3.37436 -1.05884,5.28974 3.03844,6.25779 8.46421,15.30218 9.67432,20.2047 1.50607,4.59136 4.59712,11.15338 4.74837,19.85898 z" id="path6"/>
</svg>